<?xml version="1.0" encoding="UTF-8" standalone="no"?>
<!DOCTYPE svg PUBLIC "-//W3C//DTD SVG 1.1//EN" "http://www.w3.org/Graphics/SVG/1.1/DTD/svg11.dtd">
<svg width="100%" height="100%" viewBox="0 0 378 143" version="1.1" xmlns="http://www.w3.org/2000/svg" xmlns:xlink="http://www.w3.org/1999/xlink" xml:space="preserve" xmlns:serif="http://www.serif.com/" style="fill-rule:evenodd;clip-rule:evenodd;stroke-linejoin:round;stroke-miterlimit:2;">
    <g transform="matrix(1,0,0,1,-684.672,-1623.03)">
        <g transform="matrix(1,0,0,1,297.127,983.881)">
            <path d="M387.545,781.553L387.545,639.153L417.745,639.153C429.478,639.153 438.378,642.353 444.445,648.753C450.512,655.153 453.545,664.22 453.545,675.953L453.545,742.553C453.545,755.887 450.312,765.72 443.845,772.053C437.378,778.387 428.078,781.553 415.945,781.553L387.545,781.553ZM407.945,658.353L407.945,762.353L417.345,762.353C423.078,762.353 427.145,760.92 429.545,758.053C431.945,755.187 433.145,750.687 433.145,744.553L433.145,675.953C433.145,670.353 432.012,666.02 429.745,662.953C427.478,659.887 423.345,658.353 417.345,658.353L407.945,658.353Z" style="fill-rule:nonzero;"/>
        </g>
        <g transform="matrix(1,0,0,1,297.127,983.881)">
            <path d="M483.145,658.353L483.145,702.753L494.745,702.753C498.345,702.753 501.212,702.253 503.345,701.253C505.478,700.253 507.145,698.82 508.345,696.953C509.412,695.087 510.145,692.787 510.545,690.053C510.945,687.32 511.145,684.153 511.145,680.553C511.145,676.953 510.945,673.787 510.545,671.053C510.145,668.32 509.345,665.953 508.145,663.953C505.612,660.22 500.812,658.353 493.745,658.353L483.145,658.353ZM462.745,781.553L462.745,639.153L495.545,639.153C519.545,639.153 531.545,653.087 531.545,680.953C531.545,689.353 530.245,696.487 527.645,702.353C525.045,708.22 520.478,712.953 513.945,716.553L535.945,781.553L514.345,781.553L495.345,720.753L483.145,720.753L483.145,781.553L462.745,781.553Z" style="fill-rule:nonzero;"/>
        </g>
        <g transform="matrix(1,0,0,1,22.201,508.423)">
            <path d="M888.071,1257.01L867.671,1257.01L874.04,1228.49L893.663,1228.49L888.071,1257.01Z" style="fill-rule:nonzero;"/>
        </g>
        <g transform="matrix(1,0,0,1,22.201,508.423)">
            <path d="M865.537,1257.01L812.871,1257.01L812.871,1114.61L873.671,1114.61L873.671,1133.81L833.271,1133.81L833.271,1175.61L868.471,1175.61L868.471,1194.81L833.271,1194.81L833.271,1236.61L870.092,1236.61L865.537,1257.01Z"/>
        </g>
        <g transform="matrix(1,0,0,1,22.201,508.423)">
            <path d="M948.271,1114.61L967.871,1114.61L994.071,1190.01L994.471,1190.01L1020.47,1114.61L1040.27,1114.61L1040.27,1257.01L1019.87,1257.01L1019.87,1170.41L1019.47,1170.41L999.271,1231.61L989.071,1231.61L969.071,1170.41L968.671,1170.41L968.671,1257.01L950.355,1257.01C950.355,1256.86 950.338,1256.71 950.305,1256.56L948.271,1247.45L948.271,1114.61Z" style="fill-rule:nonzero;"/>
        </g>
        <g transform="matrix(1,0,0,1,6.30168,266.527)">
            <path d="M953.05,1449.11L956.1,1449.11L960.388,1468.31L957.337,1468.31L964.171,1498.91L943.771,1498.91L937.771,1468.31L890.389,1468.31L915.371,1356.51L932.371,1356.51L953.05,1449.11ZM933.971,1449.11L923.971,1397.51L923.571,1397.51L913.571,1449.11L933.971,1449.11Z" style="fill:url(#_Linear1);fill-rule:nonzero;"/>
        </g>
    </g>
    <defs>
        <linearGradient id="_Linear1" x1="0" y1="0" x2="1" y2="0" gradientUnits="userSpaceOnUse" gradientTransform="matrix(30.6004,142.4,-142.4,30.6004,923.571,1356.51)"><stop offset="0" style="stop-color:rgb(130,188,0);stop-opacity:1"/><stop offset="0.5" style="stop-color:rgb(217,39,46);stop-opacity:1"/><stop offset="1" style="stop-color:rgb(0,130,202);stop-opacity:1"/></linearGradient>
    </defs>
</svg>
